<svg width="190.32" height="52.801" viewBox="0 0 190.32 52.801" xmlns="http://www.w3.org/2000/svg"><g id="svgGroup" stroke-linecap="round" fill-rule="evenodd" font-size="9pt" stroke="#000" stroke-width="0" fill="#ed692c" style="stroke:#000;stroke-width:0;fill:#ed692c"><path d="M 3.949 52.353 A 6.237 6.237 0 0 0 5.52 52.561 A 13.55 13.55 0 0 0 6.064 52.55 Q 8.893 52.436 10.72 51.121 Q 12.72 49.681 12.72 47.921 A 2.988 2.988 0 0 0 12.249 46.328 A 4.47 4.47 0 0 0 11.6 45.521 Q 10 44.001 9.48 41.881 Q 9.188 40.688 9.06 39.28 A 25.664 25.664 0 0 1 8.96 36.961 Q 8.96 33.761 9.32 29.881 Q 9.68 26.001 10.16 22.001 Q 11.04 15.281 11.28 10.001 Q 13.12 9.521 14.96 9.241 Q 16.8 8.961 18.56 8.961 A 19.587 19.587 0 0 1 18.804 8.962 Q 23.438 9.02 26.4 11.281 Q 29.44 13.601 29.44 17.681 A 10.765 10.765 0 0 1 29.429 18.165 A 8.125 8.125 0 0 1 26.68 24.081 A 9.328 9.328 0 0 1 22.707 26.182 A 12.747 12.747 0 0 1 19.52 26.561 A 15.518 15.518 0 0 1 19.449 26.56 Q 18.92 26.558 18.445 26.519 A 9.47 9.47 0 0 1 17.52 26.401 A 189.532 189.532 0 0 0 17.13 26.33 Q 16.528 26.222 16.16 26.161 Q 15.68 26.001 15.2 25.921 A 10.036 10.036 0 0 0 14.997 25.889 Q 14.786 25.858 14.634 25.847 A 2.135 2.135 0 0 0 14.48 25.841 A 1.726 1.726 0 0 0 14.362 25.845 Q 13.746 25.887 13.437 26.38 A 1.752 1.752 0 0 0 13.24 26.841 A 7.225 7.225 0 0 0 13.049 27.754 A 8.977 8.977 0 0 0 12.96 29.041 Q 12.96 30.436 13.289 31.464 A 4.338 4.338 0 0 0 14 32.841 Q 15.04 34.161 18 34.161 A 14.495 14.495 0 0 0 20.753 33.893 A 17.418 17.418 0 0 0 24.36 32.761 A 19.402 19.402 0 0 0 25.755 32.091 A 21.196 21.196 0 0 0 30.36 28.761 Q 33.12 26.161 34.8 22.641 A 16.843 16.843 0 0 0 35.495 20.955 A 17.996 17.996 0 0 0 36.48 14.961 A 18.621 18.621 0 0 0 36.432 13.607 A 13.418 13.418 0 0 0 31.8 4.081 Q 27.12 0.001 19.36 0.001 Q 15.44 0.001 11.64 1.001 A 40.588 40.588 0 0 0 11.522 1.032 Q 7.796 2.024 5.04 3.521 A 21.749 21.749 0 0 0 4.8 3.649 Q 2.114 5.11 1.08 6.681 A 6.347 6.347 0 0 0 0.185 8.863 A 8.85 8.85 0 0 0 0 10.721 A 8.674 8.674 0 0 0 0.016 11.263 Q 0.148 13.361 1.36 13.361 A 2.48 2.48 0 0 0 1.819 13.317 A 3.109 3.109 0 0 0 2.36 13.161 A 6.994 6.994 0 0 0 2.823 12.963 A 8.716 8.716 0 0 0 3.44 12.641 Q 3.68 14.401 3.76 16.241 Q 3.84 18.081 3.84 19.681 Q 3.84 23.761 3.48 27.761 A 132.139 132.139 0 0 1 3.275 29.857 A 114.257 114.257 0 0 1 2.56 35.361 Q 2 38.881 1.64 41.961 Q 1.28 45.041 1.28 47.041 A 17.812 17.812 0 0 0 1.286 47.51 Q 1.322 48.883 1.576 49.821 A 4.292 4.292 0 0 0 1.92 50.721 Q 2.56 51.921 3.56 52.241 A 7.264 7.264 0 0 0 3.949 52.353 Z M 84.32 34.961 L 84.56 35.041 A 44.234 44.234 0 0 1 88.369 27.275 A 41.279 41.279 0 0 1 88.44 27.161 A 23.071 23.071 0 0 1 91.246 23.509 A 19.034 19.034 0 0 1 93.76 21.281 A 11.501 11.501 0 0 1 100.551 19.043 A 14.127 14.127 0 0 1 100.8 19.041 Q 104.595 19.041 106.788 21.091 A 7.08 7.08 0 0 1 107.28 21.601 A 8.976 8.976 0 0 1 109.435 26.549 A 11.992 11.992 0 0 1 109.52 28.001 A 12.769 12.769 0 0 1 109.287 30.472 A 11.521 11.521 0 0 1 109.16 31.041 Q 108.8 32.481 108.4 33.841 Q 108 35.121 107.72 36.481 Q 107.44 37.841 107.44 39.201 Q 107.44 43.147 110.676 44.877 A 8.731 8.731 0 0 0 111.76 45.361 A 2.574 2.574 0 0 1 112.273 45.647 Q 112.574 45.869 112.726 46.154 A 1.355 1.355 0 0 1 112.88 46.801 A 3.101 3.101 0 0 1 112.842 47.256 Q 112.769 47.745 112.554 48.423 A 15.05 15.05 0 0 1 112.4 48.881 A 5.599 5.599 0 0 1 111.503 50.483 A 7.527 7.527 0 0 1 110.64 51.401 A 4.069 4.069 0 0 1 109.177 52.233 Q 108.198 52.561 106.88 52.561 Q 103.68 52.561 101.92 50.281 A 8.228 8.228 0 0 1 100.397 46.898 A 11.709 11.709 0 0 1 100.16 44.481 Q 100.16 42.481 100.6 40.441 Q 101.04 38.401 101.52 36.641 Q 101.84 35.281 102.12 33.961 Q 102.371 32.78 102.397 31.823 A 8.061 8.061 0 0 0 102.4 31.601 Q 102.4 28.666 99.957 28.071 A 5.927 5.927 0 0 0 98.56 27.921 A 7.922 7.922 0 0 0 92.961 30.206 A 10.36 10.36 0 0 0 92.8 30.361 A 19.601 19.601 0 0 0 90.013 33.845 A 25.159 25.159 0 0 0 88.56 36.481 Q 86.8 40.161 85.68 43.921 L 85.68 45.841 A 8.774 8.774 0 0 1 85.41 48.074 A 6.595 6.595 0 0 1 84.04 50.721 Q 82.4 52.641 79.6 52.641 Q 76.72 52.641 77.04 50.721 Q 77.92 47.281 78.52 43.721 A 42.877 42.877 0 0 0 79.073 38.748 A 37.209 37.209 0 0 0 79.12 36.881 Q 79.12 33.532 78.796 31.605 A 10.289 10.289 0 0 0 78.6 30.681 Q 78.08 28.721 77.2 27.961 A 5.562 5.562 0 0 0 75.873 27.118 A 7.023 7.023 0 0 0 75.04 26.801 Q 74.48 26.561 74.04 26.161 A 1.307 1.307 0 0 1 73.639 25.44 A 1.951 1.951 0 0 1 73.6 25.041 A 3.413 3.413 0 0 1 73.766 24.024 Q 73.982 23.331 74.48 22.561 A 6.991 6.991 0 0 1 75.872 21.006 A 9.215 9.215 0 0 1 77 20.201 Q 78.64 19.201 80.72 19.201 A 6.105 6.105 0 0 1 82.117 19.349 Q 83.039 19.566 83.678 20.099 A 3.414 3.414 0 0 1 84.48 21.081 A 7.547 7.547 0 0 1 85.189 22.938 Q 85.396 23.78 85.474 24.766 A 15.738 15.738 0 0 1 85.52 26.001 A 23.761 23.761 0 0 1 85.426 28.051 Q 85.326 29.202 85.12 30.481 Q 84.72 32.961 84.32 34.961 Z M 171.235 52.366 A 17.57 17.57 0 0 0 175.2 52.801 A 18.14 18.14 0 0 0 178.26 52.553 A 13.524 13.524 0 0 0 182.92 50.881 Q 186.16 48.961 187.88 45.961 Q 189.6 42.961 189.6 39.921 A 8.828 8.828 0 0 0 189.385 37.902 A 5.156 5.156 0 0 0 186.88 34.441 A 13.384 13.384 0 0 0 185.093 33.594 Q 183.912 33.133 182.483 32.789 A 30.621 30.621 0 0 0 179.52 32.241 Q 177.84 32.001 176 31.721 A 14.548 14.548 0 0 1 175.464 31.629 Q 174.741 31.491 174.12 31.292 A 7.84 7.84 0 0 1 172.92 30.801 Q 171.68 30.161 171.68 29.121 Q 171.68 28.28 172.513 27.665 A 4.128 4.128 0 0 1 173.16 27.281 Q 174.64 26.561 177.04 26.561 Q 178.64 26.561 180.28 27.001 Q 181.92 27.441 183.28 28.561 Q 183.865 29.145 184.343 29.341 A 1.207 1.207 0 0 0 184.8 29.441 A 2.185 2.185 0 0 0 184.964 29.434 Q 185.541 29.391 186.292 29.048 A 8.511 8.511 0 0 0 187 28.681 Q 188.32 27.921 189.32 26.721 A 5.078 5.078 0 0 0 189.506 26.484 A 3.964 3.964 0 0 0 190.32 24.081 A 3.159 3.159 0 0 0 189.689 22.148 A 4.188 4.188 0 0 0 188.8 21.281 A 7.844 7.844 0 0 0 188.582 21.125 Q 187.116 20.121 184.96 19.601 Q 182.64 19.041 180.16 19.041 Q 175.44 19.041 172.16 20.881 Q 168.88 22.721 167.24 25.481 Q 165.6 28.241 165.6 31.201 A 10.513 10.513 0 0 0 165.627 31.964 Q 165.808 34.443 167.2 35.801 Q 168.8 37.361 171.28 38.001 Q 173.76 38.641 176.4 39.121 A 101.725 101.725 0 0 1 178.157 39.391 Q 180.644 39.799 181.88 40.161 Q 182.553 40.358 182.95 40.662 A 1.334 1.334 0 0 1 183.52 41.761 A 1.808 1.808 0 0 1 182.937 43.084 Q 182.652 43.365 182.228 43.605 A 5.992 5.992 0 0 1 181.36 44.001 A 12.414 12.414 0 0 1 178.885 44.625 A 16.753 16.753 0 0 1 176.4 44.801 A 17.999 17.999 0 0 1 176.226 44.8 A 16.106 16.106 0 0 1 171.68 44.121 Q 169.44 43.441 168 42.641 A 4.909 4.909 0 0 0 167.955 42.618 Q 167.616 42.453 167.292 42.36 A 2.941 2.941 0 0 0 166.48 42.241 Q 165.12 42.241 164.52 43.321 Q 163.92 44.401 163.92 45.601 A 6.228 6.228 0 0 0 163.921 45.67 A 5.232 5.232 0 0 0 165.52 49.441 A 9.441 9.441 0 0 0 167.491 50.937 A 12.499 12.499 0 0 0 169.68 51.921 A 15.538 15.538 0 0 0 171.235 52.366 Z M 122.68 49.561 A 6.743 6.743 0 0 0 123.897 50.964 Q 126.006 52.801 129.68 52.801 A 14.366 14.366 0 0 0 132.247 52.581 A 10.533 10.533 0 0 0 136.32 50.961 Q 139.04 49.121 139.04 46.481 A 3.538 3.538 0 0 0 139.003 45.951 Q 138.962 45.676 138.873 45.459 A 1.288 1.288 0 0 0 138.48 44.921 A 1.407 1.407 0 0 0 138.247 44.774 Q 137.67 44.481 136.56 44.481 Q 133.948 44.481 132.068 43.888 A 7.729 7.729 0 0 1 129.84 42.801 A 4.361 4.361 0 0 1 129.726 42.715 Q 128.103 41.457 127.674 38.676 A 14.449 14.449 0 0 1 127.52 36.481 A 20.324 20.324 0 0 1 127.524 36.111 Q 127.542 35.102 127.659 33.976 A 34.54 34.54 0 0 1 127.96 31.801 Q 128.4 29.201 128.96 26.721 Q 131.2 26.721 132.8 26.961 Q 134.4 27.201 135.44 27.441 A 36.575 36.575 0 0 0 135.917 27.533 Q 136.143 27.575 136.346 27.609 A 17.918 17.918 0 0 0 136.8 27.681 Q 137.36 27.761 137.6 27.761 A 1.336 1.336 0 0 0 138.191 27.62 Q 138.969 27.242 139.64 25.841 Q 140.56 23.921 140.56 22.001 Q 140.56 21.066 140.302 20.441 A 1.929 1.929 0 0 0 139.56 19.521 A 3.428 3.428 0 0 0 138.76 19.152 Q 137.918 18.881 136.72 18.881 Q 135.28 18.881 133.72 19.121 Q 132.16 19.361 130.64 19.681 Q 130.8 18.801 130.92 17.961 A 12.648 12.648 0 0 0 130.935 17.856 A 11.526 11.526 0 0 0 131.04 16.321 Q 131.04 14.919 130.666 14.164 A 1.452 1.452 0 0 0 129.28 13.281 Q 128.242 13.281 126.893 14.049 A 11.924 11.924 0 0 0 125.8 14.761 A 25.701 25.701 0 0 0 123.983 16.214 A 32.919 32.919 0 0 0 121.72 18.401 Q 119.68 20.561 118.32 22.761 A 16.066 16.066 0 0 0 118.176 22.998 Q 117.402 24.3 117.121 25.355 A 4.383 4.383 0 0 0 116.96 26.481 Q 116.96 27.623 118.067 27.859 A 3.141 3.141 0 0 0 118.72 27.921 Q 120.4 27.921 122.08 27.441 A 78.27 78.27 0 0 1 121.972 28.406 A 91.674 91.674 0 0 1 121.68 30.641 Q 121.44 32.321 121.2 34.081 Q 120.96 35.841 120.76 37.601 Q 120.56 39.361 120.56 41.201 Q 120.56 43.721 121.074 45.785 A 12.226 12.226 0 0 0 122.68 49.561 Z M 47.523 52.396 A 16.491 16.491 0 0 0 51.28 52.801 Q 56.56 52.801 60.52 50.241 Q 64.48 47.681 66.72 43.321 Q 68.96 38.961 68.96 33.601 A 24.122 24.122 0 0 0 68.951 32.936 Q 68.775 26.533 65.16 22.881 A 11.747 11.747 0 0 0 63.822 21.718 Q 61.689 20.13 58.801 19.484 A 19.787 19.787 0 0 0 54.48 19.041 A 28.982 28.982 0 0 0 54.036 19.044 Q 51.905 19.077 50.038 19.425 A 16.866 16.866 0 0 0 45.84 20.761 A 51.703 51.703 0 0 0 45.16 21.092 Q 43.137 22.095 41.789 22.999 A 13.15 13.15 0 0 0 40.56 23.921 A 5.004 5.004 0 0 0 40.187 24.243 Q 39.645 24.758 39.08 25.561 A 3.549 3.549 0 0 0 38.727 26.195 Q 38.509 26.698 38.408 27.318 A 7.227 7.227 0 0 0 38.32 28.481 A 6.14 6.14 0 0 0 38.352 29.102 A 6.96 6.96 0 0 0 38.68 30.601 Q 38.9 31.259 39.342 31.516 A 1.286 1.286 0 0 0 40 31.681 A 1.036 1.036 0 0 0 40.011 31.681 Q 40.5 31.675 41.355 31.212 A 10.629 10.629 0 0 0 41.92 30.881 Q 40.64 33.121 39.88 35.681 Q 39.12 38.241 39.12 40.961 A 19.44 19.44 0 0 0 39.139 41.834 Q 39.373 47.029 42.44 49.801 A 11.254 11.254 0 0 0 47.523 52.396 Z M 147.84 51.241 A 4.244 4.244 0 0 0 148.252 51.592 Q 149.545 52.561 151.6 52.561 Q 154.24 52.561 155.8 51.441 A 9.803 9.803 0 0 0 155.983 51.306 Q 157.398 50.24 158 48.961 Q 158.64 47.601 158.64 46.961 Q 158.64 46.442 158.337 46.091 A 1.517 1.517 0 0 0 157.92 45.761 A 14.863 14.863 0 0 1 157.176 45.363 Q 155.946 44.658 155.2 43.881 A 2.973 2.973 0 0 1 154.659 43.086 Q 154.433 42.61 154.329 42.007 A 6.635 6.635 0 0 1 154.24 40.881 Q 154.24 39.761 154.4 38.481 Q 154.56 37.201 154.88 35.681 Q 155.28 33.601 155.68 31.161 Q 156.08 28.721 156.08 26.161 Q 156.08 24.481 155.76 22.881 Q 155.44 21.281 154.52 20.241 Q 153.87 19.505 152.679 19.29 A 6.072 6.072 0 0 0 151.6 19.201 A 7.236 7.236 0 0 0 150.744 19.251 A 7.606 7.606 0 0 0 148.04 20.121 A 10.528 10.528 0 0 0 146.8 20.894 A 8.068 8.068 0 0 0 145.28 22.321 A 6.546 6.546 0 0 0 144.859 22.897 Q 144.591 23.313 144.439 23.71 A 2.822 2.822 0 0 0 144.24 24.721 A 2.412 2.412 0 0 0 144.24 24.737 Q 144.244 25.237 144.455 25.639 A 2.008 2.008 0 0 0 145 26.281 Q 145.76 26.881 146.8 27.441 A 4.185 4.185 0 0 1 147.047 27.567 A 3.054 3.054 0 0 1 148.56 29.401 Q 148.96 30.721 148.96 32.161 A 22.908 22.908 0 0 1 148.932 33.312 A 19.52 19.52 0 0 1 148.6 36.081 Q 148.24 37.921 147.68 39.681 Q 147.2 41.361 146.84 43.121 Q 146.48 44.881 146.48 46.721 A 14.482 14.482 0 0 0 146.483 47 Q 146.54 49.979 147.84 51.241 Z M 53.76 44.641 A 10.508 10.508 0 0 0 57.397 44.03 A 9.378 9.378 0 0 0 60.52 42.121 A 8.342 8.342 0 0 0 63.226 36.578 A 11.571 11.571 0 0 0 63.28 35.441 A 10.424 10.424 0 0 0 63.04 33.122 Q 62.7 31.634 61.88 30.571 A 5.718 5.718 0 0 0 60.48 29.281 A 11.231 11.231 0 0 0 55.129 27.486 A 13.948 13.948 0 0 0 54 27.441 Q 52.32 27.441 50.96 27.761 Q 49.6 28.081 48.4 28.561 A 19.94 19.94 0 0 0 46.974 30.95 A 23.686 23.686 0 0 0 46.4 32.161 A 10.503 10.503 0 0 0 45.551 35.675 A 12.513 12.513 0 0 0 45.52 36.561 A 10.596 10.596 0 0 0 45.772 38.948 Q 46.155 40.6 47.115 41.78 A 6.286 6.286 0 0 0 47.92 42.601 Q 50.32 44.641 53.76 44.641 Z M 149.908 11.756 A 6.659 6.659 0 0 0 151.52 12.001 A 7.249 7.249 0 0 0 152.753 11.9 A 5.064 5.064 0 0 0 155.6 10.441 A 5.43 5.43 0 0 0 156.832 8.483 A 6.473 6.473 0 0 0 157.2 6.481 Q 157.28 4.161 155.96 2.881 A 4.312 4.312 0 0 0 155.656 2.613 Q 154.895 2.002 153.851 1.731 A 7.065 7.065 0 0 0 152.32 1.521 Q 151.96 1.509 151.618 1.532 A 5.174 5.174 0 0 0 148.24 3.001 A 5.344 5.344 0 0 0 146.915 5.063 A 6.507 6.507 0 0 0 146.56 7.041 A 6.348 6.348 0 0 0 146.721 8.513 A 4.175 4.175 0 0 0 147.92 10.641 A 4.789 4.789 0 0 0 149.908 11.756 Z" vector-effect="non-scaling-stroke"/></g></svg>